<?xml version="1.0" encoding="UTF-8" standalone="no"?>
<svg
   xmlns:dc="http://purl.org/dc/elements/1.1/"
   xmlns:cc="http://creativecommons.org/ns#"
   xmlns:rdf="http://www.w3.org/1999/02/22-rdf-syntax-ns#"
   xmlns:svg="http://www.w3.org/2000/svg"
   xmlns="http://www.w3.org/2000/svg"
   xmlns:sodipodi="http://sodipodi.sourceforge.net/DTD/sodipodi-0.dtd"
   xmlns:inkscape="http://www.inkscape.org/namespaces/inkscape"
   width="31.687979mm"
   height="19.622316mm"
   viewBox="0 0 31.687979 19.622316"
   version="1.1"
   id="svg897"
   inkscape:version="1.0.2 (e86c870879, 2021-01-15)"
   sodipodi:docname="cloud.svg">
  <defs
     id="defs891" />
  <sodipodi:namedview
     id="base"
     pagecolor="#ffffff"
     bordercolor="#666666"
     borderopacity="1.0"
     inkscape:pageopacity="0.0"
     inkscape:pageshadow="2"
     inkscape:zoom="0.35"
     inkscape:cx="401.53877"
     inkscape:cy="557.05834"
     inkscape:document-units="mm"
     inkscape:current-layer="layer1"
     inkscape:document-rotation="0"
     showgrid="false"
     fit-margin-top="0"
     fit-margin-left="0"
     fit-margin-right="0"
     fit-margin-bottom="0"
     inkscape:window-width="3838"
     inkscape:window-height="2117"
     inkscape:window-x="0"
     inkscape:window-y="20"
     inkscape:window-maximized="0" />
  <metadata
     id="metadata894">
    <rdf:RDF>
      <cc:Work
         rdf:about="">
        <dc:format>image/svg+xml</dc:format>
        <dc:type
           rdf:resource="http://purl.org/dc/dcmitype/StillImage" />
        <dc:title></dc:title>
      </cc:Work>
    </rdf:RDF>
  </metadata>
  <g
     inkscape:label="Layer 1"
     inkscape:groupmode="layer"
     id="layer1"
     transform="translate(0.40713173,-0.77831465)">
    <g
       id="Group_1"
       data-name="Group 1"
       transform="matrix(0.26458333,0,0,0.26458333,-13.058996,-16.303162)">
      <path
         id="Path_1"
         data-name="Path 1"
         d="m 153.194,91.8 a 37.094,37.094 0 0 0 -68.3,-7.956 h -0.251 a 24.6,24.6 0 0 0 -24.407,21.8 16.836,16.836 0 0 0 0.82,32.693 l 2.616,0.386 h 7.013 l 30.255,-27.058 -36.023,17.87 c -0.087,0 -0.174,0.008 -0.261,0.008 a 7.6552312,7.6552312 0 0 1 -0.119,-15.31 l 4.993,-0.076 -0.247,-4.988 c -0.012,-0.253 -0.019,-0.509 -0.019,-0.766 a 15.4,15.4 0 0 1 15.376,-15.375 15.63,15.63 0 0 1 2.179,0.154 l 3.611,0.511 1.477,-3.333 a 27.91,27.91 0 0 1 52.853,5.63 l 0.558,2.715 2.626,0.884 a 15.381,15.381 0 0 1 -4.661,29.95 H 122.51 c -0.267,-5.932 -0.694,-13.75 -0.906,-17.562 l -9.9,26.746 h 31.657 l 0.324,-0.006 4.034,-0.443 A 24.568,24.568 0 0 0 153.194,91.8 Z"
         fill="#005ba3" />
      <path
         id="Path_2"
         data-name="Path 2"
         d="m 96.59,155.462 h 27.66 l 18.95,-44.745 z"
         transform="translate(-17.831,-16.875)"
         fill="#005ba3" />
      <path
         id="Path_3"
         data-name="Path 3"
         d="m 139.4,145.3 5.565,-7.145 h -0.805 l -6,7.145 z"
         transform="translate(-33.027,-26.906)"
         fill="#ffffff" />
      <path
         id="Path_4"
         data-name="Path 4"
         d="m 123.966,159.222 -10.538,12.542 2.469,-0.06 9.723,-12.482 z"
         transform="translate(-23.987,-34.608)"
         fill="#ffffff" />
      <path
         id="Path_5"
         data-name="Path 5"
         d="m 163.156,118.576 -1.794,2.135 h 0.206 l 1.662,-2.135 z"
         transform="translate(-41.511,-19.748)"
         fill="#ffffff" />
      <path
         id="Path_6"
         data-name="Path 6"
         d="m 156.321,125.408 -3.693,4.4 h 0.609 l 3.424,-4.4 z"
         transform="translate(-38.318,-22.246)"
         fill="#ffffff" />
    </g>
  </g>
</svg>
